<?xml version="1.0" encoding="UTF-8"?>
<svg id="Layer_2" data-name="Layer 2" xmlns="http://www.w3.org/2000/svg" viewBox="0 0 612 792">
  <defs>
    <style>
      .cls-1, .cls-2 {
        fill: #ed2024;
      }

      .cls-3 {
        fill: #b3b4b4;
      }

      .cls-3, .cls-4, .cls-5, .cls-6, .cls-2 {
        stroke-miterlimit: 10;
      }

      .cls-3, .cls-4, .cls-6, .cls-2 {
        stroke: #000;
      }

      .cls-3, .cls-6 {
        stroke-width: 3px;
      }

      .cls-7 {
        fill: #f7ec13;
      }

      .cls-4 {
        fill: #fff;
      }

      .cls-4, .cls-5, .cls-2 {
        stroke-width: 2px;
      }

      .cls-5 {
        fill: #ae2024;
        stroke: #782625;
      }

      .cls-6 {
        fill: #5e5f5f;
      }
    </style>
  </defs>
  <g>
    <path class="cls-2" d="M503,501.09c-1.85-15.34-14.9-27.23-30.75-27.23h-1.7v-14.3h-29.94v14.3h-1.04c-15.84,0-28.9,11.89-30.75,27.23h-.23v197.79h94.64v-197.79h-.23Z"/>
    <rect class="cls-3" x="448.6" y="440.83" width="13.49" height="17.23"/>
    <path class="cls-3" d="M440.51,444.58c-2.39,0-4.32,1.93-4.32,4.32s1.93,4.32,4.32,4.32h5.23v-8.64h-5.23Z"/>
    <path d="M354.98,458.07c1.47.38,3.68.92,6.38,1.49,3.09.65,3.96.73,6.13,1.19,4.08.87,4.12,1.24,9.19,2.55,5.38,1.39,5.33.97,9.96,2.3,2.12.61,4.26,1.19,6.38,1.79,1.74.49,2.9.82,4.6,1.02,1.44.17,2.72.3,4.34,0,1.81-.34,3.06-1.05,4.34-1.79,1.4-.81,2.4-1.65,4.34-3.29,2.05-1.74,3.08-2.61,4.09-3.77,1.86-2.14,1.61-2.7,3.32-4.94,1.01-1.32,2.7-3.49,5.62-5.17,1.95-1.12,3.68-1.49,7.15-2.23,2.58-.55,3.31-.45,3.83,0,1.07.95,1.01,3.27,0,4.09-.81.65-1.65-.12-3.57.26-1.12.22-1.85.7-3.32,1.66-1.45.95-2.37,1.82-4.09,3.45-1.35,1.28-2.02,1.92-2.81,2.89-1.44,1.77-1.08,2.16-2.55,4-1.05,1.31-2.55,2.81-2.55,2.81,0,0-.98,1.39-2.04,2.22-1.02.81-1.54.64-3.06,1.35-.78.36-1.87.97-3.06,2.04-2.36,1.19-4.27,1.49-5.62,1.53-.92.03-1.87-.05-4.09,0,0,0-1.29.03-2.67.11-4.62.28-11.37,2.95-11.37,2.95-7.61,3.02-6.98,1.49-15.06,4.6-7.58,2.91-12.66,5.99-13.79,4.6-.31-.39.03-.68,0-3.06-.02-1.97-.26-2.3-.38-4.6-.06-1.21.01-.98,0-4.09,0-2.3-.05-2.24-.06-4.85-.01-2.03.01-1.99,0-4.09-.01-2.02-.04-2.28,0-3.06.06-1.62.26-2.98.45-3.96Z"/>
    <path class="cls-6" d="M468.74,428.9c1.31-1.8,4.68-.44,11.74,0,4.5.28,3.96-.22,11.49,0,8.76.25,10.85.97,11.74,2.55.62,1.09.75,2.73,0,3.83-1.33,1.95-4.57.91-11.23,1.02-2.33.04-6.84.12-12,1.26-5.83,1.28-8.48,3.04-10.21,1.55-.9-.77-1.11-2.23-1.53-5.14-.41-2.82-.61-4.23,0-5.07Z"/>
    <path class="cls-6" d="M442.04,438.54c-.4-.64-.27-2.02,0-4.77.26-2.65.42-4.26,1.02-5.84.6-1.58,1.53-2.84,5.53-6.24,4.69-3.99,7.04-5.99,9.53-7.15,3.86-1.8,7.17-2.19,10.21-2.55,4.39-.52,7.9-.24,10.98,0,3.6.29,7,.84,8.11,1.02,4.12.68,3.91.9,5.93,1.02,2.89.18,4.25-.2,5.11.77.84.95.86,2.82,0,3.83-1.18,1.38-3.61.66-7.4.26-.65-.07.8.1-10.21,0-8.33-.07-11.36-.19-13.79,1.79-.61.5-2.01,1.64-2.04,3.32-.02,1.06.53,1.87,1.02,2.55,1.75,2.47,3.73,2.19,4.49,4.09.27.67,0,.63,0,3.15.01,3.35.5,3.97,0,4.77-.79,1.25-2.89,1.14-5.51,1.08-3.57-.09-7.15.08-10.72,0-8.39-.18-11.14.71-12.25-1.08Z"/>
    <rect class="cls-4" x="420.62" y="519.47" width="69.45" height="114.89" rx="11.23" ry="11.23"/>
    <rect class="cls-5" x="409.45" y="658.88" width="92.94" height="12.77"/>
  </g>
  <path class="cls-1" d="M137.03,386.02c-2.35-2.05-5-4.8-10.31-10.31-4.2-4.36-8.53-8.86-13.4-14.43-8.26-9.46-12.38-14.18-14.43-18.25-4.13-8.2-1.8-10.89-4.12-27.11-2.62-18.3-6.14-18.82-8.25-36.43-1.44-12.05-2.18-18.27,0-26.45,1.6-6.02,6.59-13.72,16.49-28.87,8.53-13.04,9.43-13.36,12.37-19.24,6.03-12.03,8.2-22.52,9.28-22.28,1.32.29-5.04,15.38,2.06,25.67,3.74,5.42,10.27,8.12,16.49,10.7,3.8,1.57,7.4,3.02,12.37,3.09,3.18.05,9.61.14,14.43-4.12,4.44-3.93,5.19-9.5,6.19-16.85.79-5.88.34-10.44.07-13.05-.51-4.87-1.1-10.45-4.19-16.49-2.74-5.34-4.46-5.23-7.22-11.34-2.1-4.65-2.83-8.56-3.09-10.16-.6-3.73-.24-5.03,0-12.52.34-10.63,0-20.62,0-20.62,5.12-10.04,10.67-16.51,14.88-20.62,3.12-3.04,5.98-5.24,11.92-11.34,4.18-4.29,4.53-5,8.76-9.28,4.21-4.25,7.67-7.72,12.6-11.34,6.45-4.74,9.67-7.11,11.63-6.16,6.11,2.95-1.79,32.85-2.06,32.8-.16-.03,1.52-10.19,2.06-10.14.57.05-2.76,11.32,2.26,21.65,2.89,5.94,7.67,9.78,12.17,13.4,4.86,3.91,6.7,4.23,12.37,7.9,11.83,7.64,19.11,16.09,20.62,17.88,6.96,8.23,10.61,15.86,12.37,19.59,2.4,5.09,4,10.25,7.22,20.58,2.8,8.99,4.21,13.59,5.15,19.28,1.55,9.36,2.46,14.88,0,20.88-2.51,6.11-5.47,5.29-10.31,12.46-7.72,11.46-7.29,24.15-8.25,24.02-.69-.09-.22-6.5,0-6.5.33,0-2.26,14.11,4.12,18.56,2.97,2.07,7.3,1.65,10.31,0,4.1-2.25,4.89-7.32,5.65-12.06,1.74-10.85-1.56-17.41.12-18.19,1.75-.8,5.51,6.18,15.88,18.19,5.64,6.53,6.91,7.24,10.31,12.06,3.38,4.81,6.78,9.73,8.25,16.49.85,3.92.08,3.97,0,14.43-.04,5.38.16,5.08.76,24.74.3,9.77.26,10.28,0,11.34-1.55,6.42-5.22,9.06-13.13,18.56-7.4,8.89-5.39,8.02-10.31,13.4-3.67,4.02-10.33,11.19-20.62,16.49-5.95,3.07-7.81,2.78-17.53,6.19-12.49,4.39-14.34,6.7-23.71,10.31-2.71,1.04-13.51,5.09-27.84,7.22-11.28,1.67-22.44,3.33-36.08,0-9.01-2.2-15.33-5.65-25.77-11.34-11.35-6.19-17.01-11.03-18.56-12.37Z"/>
  <path class="cls-7" d="M167.93,352.05c-1.33-1.16-2.82-2.71-5.82-5.82-2.37-2.46-4.82-5-7.56-8.15-4.66-5.34-6.99-8.01-8.15-10.3-2.33-4.63-1.02-6.15-2.33-15.3-1.48-10.33-3.47-10.62-4.65-20.56-.81-6.8-1.23-10.31,0-14.93.91-3.4,3.72-7.74,9.31-16.29,4.81-7.36,5.32-7.54,6.98-10.86,3.41-6.79,4.63-12.71,5.24-12.58.74.17-2.84,8.68,1.16,14.49,2.11,3.06,5.8,4.59,9.31,6.04,2.14.89,4.17,1.7,6.98,1.75,1.8.03,5.43.08,8.15-2.33,2.51-2.22,2.93-5.36,3.49-9.51.45-3.32.19-5.89.04-7.37-.29-2.75-.62-5.9-2.37-9.31-1.55-3.02-2.52-2.95-4.07-6.4-1.18-2.62-1.6-4.83-1.75-5.73-.34-2.11-.13-2.84,0-7.07.19-6,0-11.64,0-11.64,2.89-5.67,6.02-9.32,8.4-11.64,1.76-1.71,3.37-2.96,6.73-6.4,2.36-2.42,2.55-2.82,4.95-5.24,2.38-2.4,4.33-4.35,7.11-6.4,3.64-2.68,5.46-4.01,6.56-3.48,3.45,1.67-1.01,18.54-1.16,18.51-.09-.02.86-5.75,1.16-5.73.32.03-1.56,6.39,1.28,12.22,1.63,3.35,4.33,5.52,6.87,7.56,2.74,2.2,3.78,2.39,6.98,4.46,6.68,4.31,10.78,9.08,11.64,10.09,3.93,4.64,5.99,8.95,6.98,11.06,1.35,2.87,2.26,5.78,4.07,11.61,1.58,5.07,2.38,7.67,2.91,10.88.88,5.29,1.39,8.4,0,11.78-1.42,3.45-3.09,2.98-5.82,7.03-4.36,6.47-4.11,13.63-4.65,13.56-.39-.05-.13-3.67,0-3.67.19,0-1.28,7.96,2.33,10.47,1.67,1.17,4.12.93,5.82,0,2.32-1.27,2.76-4.13,3.19-6.81.98-6.12-.88-9.83.07-10.26.99-.45,3.11,3.49,8.96,10.26,3.18,3.69,3.9,4.08,5.82,6.81,1.91,2.72,3.83,5.49,4.65,9.31.48,2.21.05,2.24,0,8.15-.02,3.03.09,2.87.43,13.96.17,5.52.15,5.8,0,6.4-.88,3.62-2.95,5.11-7.41,10.47-4.18,5.02-3.04,4.53-5.82,7.56-2.07,2.27-5.83,6.32-11.64,9.31-3.36,1.73-4.41,1.57-9.89,3.49-7.05,2.48-8.1,3.78-13.38,5.82-1.53.59-7.62,2.87-15.71,4.07-6.36.94-12.66,1.88-20.37,0-5.08-1.24-8.65-3.19-14.55-6.4-6.41-3.49-9.6-6.22-10.47-6.98Z"/>
</svg>